<svg xmlns="http://www.w3.org/2000/svg" viewBox="0 0 20 18.17"><defs><style>.cls-1,.cls-2{fill:none;stroke:#ffd00b;stroke-linecap:round;stroke-linejoin:round;stroke-width:1.5px;}.cls-1{opacity:0.4;isolation:isolate;}</style></defs><g id="Capa_2" data-name="Capa 2"><g id="Layer_1" data-name="Layer 1"><g id="Iconly_Two-tone_Danger" data-name="Iconly Two-tone Danger"><g id="Danger-5"><path id="Fill_1-169" data-name="Fill 1-169" class="cls-1" d="M9.25,13.27a.75.75,0,0,1,.75-.75.74.74,0,0,1,.75.74h0a.75.75,0,0,1-1.5,0Z"/><path id="Stroke_3-127" data-name="Stroke 3-127" class="cls-2" d="M2.79,17.42H17.28a2.09,2.09,0,0,0,2-2.18,2.31,2.31,0,0,0-.15-.68L11.82,1.82a2.08,2.08,0,0,0-3.64,0L.9,14.56a2.08,2.08,0,0,0,1.15,2.71h0a2.58,2.58,0,0,0,.68.15"/><path id="Stroke_1-153" data-name="Stroke 1-153" class="cls-1" d="M10,10.4V7.3"/></g></g></g></g></svg>